<?xml version="1.0" standalone="no"?>
<!DOCTYPE svg PUBLIC "-//W3C//DTD SVG 20010904//EN"
 "http://www.w3.org/TR/2001/REC-SVG-20010904/DTD/svg10.dtd">
<svg version="1.0" xmlns="http://www.w3.org/2000/svg"
 width="300.000000pt" height="300.000000pt" viewBox="0 0 300.000000 300.000000"
 preserveAspectRatio="xMidYMid meet">
<metadata>
Created by potrace 1.16, written by Peter Selinger 2001-2019
</metadata>
<g transform="translate(0.000000,300.000000) scale(0.100000,-0.100000)"
fill="#000000" stroke="none">
<path d="M0 1500 l0 -1500 1500 0 1500 0 0 1500 0 1500 -1500 0 -1500 0 0
-1500z m1579 1305 c342 -60 638 -268 812 -571 27 -47 49 -87 49 -90 0 -3 9
-24 19 -47 29 -63 69 -212 81 -300 48 -362 -84 -735 -351 -992 -221 -213 -467
-318 -776 -332 -250 -11 -510 66 -720 213 -93 66 -238 214 -297 304 -67 102
-129 236 -161 350 -23 80 -28 121 -32 259 -6 186 4 271 49 406 134 405 508
733 909 799 52 8 105 17 119 20 44 8 202 -2 299 -19z"/>
<path d="M1413 2340 c-312 -33 -616 -287 -703 -588 -48 -165 -50 -303 -8 -472
80 -324 386 -585 725 -620 504 -53 937 335 937 840 0 101 -13 178 -45 275
-103 306 -386 532 -709 566 -94 10 -94 10 -197 -1z m232 -381 c55 -53 114
-109 132 -123 l32 -27 3 38 3 38 80 0 80 0 3 -126 3 -125 59 -59 c78 -77 78
-93 3 -97 l-58 -3 -3 -233 -2 -232 -163 2 -162 3 -3 73 -3 72 -134 0 -135 0 0
-75 0 -75 -160 0 -160 0 -2 233 -3 232 -57 3 c-47 2 -58 6 -58 20 -1 9 128
143 287 299 237 231 291 279 303 270 8 -6 60 -55 115 -108z"/>
</g>
</svg>
