<?xml version="1.0" standalone="yes"?>
<svg xmlns="http://www.w3.org/2000/svg" width="512" height="512">
<path style="fill:#160f13; stroke:none;" d="M0 0L0 512L512 512L512 496L303 496L303 492L311 492L311 491L303 491C307.988 485.906 319.486 487.449 326 489L325 486L329 486L329 485L329 483L318 484L318 485L321 485L321 486L294 489L294 490L303 491L303 492L274 491L274 492L288 492L288 493L237 493L237 492L245 492L245 491L227 491L228 489L205 486L205 491L184 479L178 477L177 477L177 480L170 474L169 474L169 478L162 471L153 469L154 467L150 465L148 464L145 462C132.72 468.817 114.493 444.676 108 436L107 436L117 449L95.5926 426.685L91 421L88 421L90 420L90 419L88 417C81.6278 416.307 76.3075 408.357 72.0039 404C58.7543 390.586 45.7402 369.378 39 352L43 352L38 336L37 336L37 352L36 352L33 321L32 321L31 325L30 325L28 300L27 300L27 302L26 302L23 260L26 211L28 212C28.1142 201.658 32.3521 177.438 40 170L43 156C46.9922 156.096 47.8261 150.448 48 147L50 148L55 134L56 134L56 136L57 136C58.5342 129.387 63.4361 120.903 69 117L67 115L76 107L81 102L93 89L92 87L110 74C110 66.2608 133.061 61.5813 132 55C136.279 54.7124 153.103 47.2932 153 43L166 40L165 38L184 33L183 31L200 28L199 26L228 23L227 21L244 21L244 20L237 20L237 19L281 19L281 20L276 20L276 21L292 21L291 23L346.015 35.9861L368 36L368 37L348 37L348 38C353.708 38.7314 363.182 46.5066 368 41L369 41L365 44L365 45L374 50L377 49L383 54L403 69L422 83C422.693 86.7213 425.279 89.3072 429 90L434 98L448 110.436L469 111L512 111L512 110L447 110L447 109L512 109L512 0L0 0z"/>
<path style="fill:#ce0d17; stroke:none;" d="M237 19L237 20L244 20L244 21L227 21L228 23L199 26L200 28L183 31L184 33L165 38L166 40L153 43L144 51C158.117 46.2942 171.408 39.736 186 36.2354C227.578 26.2607 270.31 29.4231 310 45.4529C432.814 95.0543 473.538 256.748 388.562 358C313.485 447.457 179.909 454.127 95 374.91C78.5419 359.556 64.8463 340.088 54.8025 320C36.3258 283.047 27.9559 236.864 36.5139 196C40.5124 176.907 49.3454 159.618 54 141L50 148L48 147C48 151.531 45.324 156.581 43 156L40 170L34.9653 181L28 212L26 211L23 261L26 302L27 302L27 300L28 300L30 325L31 325L32 321L33 321L36 352L37 352L37 336L38 336L43 352L39 352C41.5291 361.247 46.4595 366.193 51.1242 374.005C57.507 384.693 63.1845 396.071 72.0039 405C76.4296 409.481 81.3387 416.716 88 417L90 420L88 421L91 421C92.628 430.138 109.606 443.791 117 449L107 436L108 436C112.59 445.143 133.752 469.877 145 462L148 464C148.579 465.91 148.985 467.334 150 465L154 467L153 469L162 471L169 478L169 474L170 474C171.083 477.334 175.584 483.609 177 477L178 477L178 480L184 479L191 482.083L205 491L205 486L228 489L227 491L245 491L245 492L237 492L237 493L288 493L288 492L274 492L274 491L303 492L303 491L294 490L294 489L321 486L321 485L318 485L318 484L329 483C326.926 484.659 326.163 484.433 329 485L329 486L325 486L325 488L335 489L335 486L337 486L336 489L339 489L338 486L348 487C350.573 480.055 361.478 482.054 368 482L368 474L380 474L380 473L373 473L373 469L385 469L384 467C388.128 465.248 389.16 463.358 388 459L400 457L400 470C406.967 465.092 419.394 455.144 422.397 447C424.638 440.921 423.946 430.54 424 424L433 424L433 415C436.808 414.172 437.798 412.627 439 409L440 409C440 419.265 443.584 437.777 438.972 447C430.932 463.081 410.391 473.249 400 488L429 460L440.397 447L442 415C446.968 413.916 447.218 411.212 445 407L450 406L450 407L448 407L448 408L455 407L455 406L450 406L450 404L459 405L459 399L463 399L460 401L460 406L464 406L466 394L468 399L469 399L471 387L473 387L473 398L474 398L477 380L474 381L474 373L479 373L477 355L474 356L474 352L476 351L479 353L477 347L477 346L477 345L479 340L480 340L480 352L481 352L490 332L488 321L490 321L490 329L491 329L491 321L494 321C493.987 317.806 494.403 315.729 491 315L491 314L496 314L494.647 337L482 363L480 363L480 422L478.972 447L466 461L432 496L512 496L512 111C492.764 111 468.73 114.934 450 110.697C442.167 108.925 441.284 99.2612 434 98L429 90L403 69L396.389 62.9445L377 49L374 50L365 45L365 44L369 41L368 41C361.828 45.6036 354.651 38.4426 348 38L348 37L368 37L368 36L346.428 35.8472L291 23L292 21L276 21L276 20L281 20C269.537 15.1898 249.48 19 237 19M336 20L336 24L341 24L336 20z"/>
<path style="fill:#19935d; stroke:none;" d="M205 25L206 26L205 25z"/>
<path style="fill:#ce0d17; stroke:none;" d="M336 25L336 31L345 32L342 25L336 25z"/>
<path style="fill:#e1dfdf; stroke:none;" d="M143 50C137.997 55.27 122.116 66.2659 115 67L95.1551 86.4283L64 121L66 121L62 125C59.7996 137.967 48.965 151.147 44.7492 164C34.1777 196.23 30.4691 231.38 36.321 265C42.4212 300.046 58.1109 333.997 81.2855 361C98.5685 381.138 119.491 397.321 143 409.614C162.565 419.844 184.216 426.15 206 429.271C232.244 433.031 259.257 431.236 285 424.961C400.131 396.896 461.514 268.359 421.694 160C411.287 131.677 394.305 107.203 373 86.0008C350.771 63.8793 321.987 47.7022 292 38.8557C256.939 28.5125 220.568 27.7025 185 36.2354C171.143 39.5598 156.942 48.672 143 50z"/>
<path style="fill:#ce0d17; stroke:none;" d="M141 50L141 52L143 52L143 50L141 50z"/>
<path style="fill:#19935d; stroke:none;" d="M139 52L137 53L137 54L139 52M136 54L137 55L136 54M132 55L132 56L136 56L132 55M130 58L131 59L130 58M125 60L125 62L127 60L125 60M122 62L122 64L124 64L124 62L122 62z"/>
<path style="fill:#ce0d17; stroke:none;" d="M120 64L121 65L120 64M119 65L120 66L119 65z"/>
<path style="fill:#19935d; stroke:none;" d="M118 66L119 67L118 66M117 67L118 68L117 67M115 68L116 69L115 68z"/>
<path style="fill:#ce0d17; stroke:none;" d="M113 69L112 71L113 69z"/>
<path style="fill:#19935d; stroke:none;" d="M113 70L114 71L113 70M112 71L113 72L112 71z"/>
<path style="fill:#ce0d17; stroke:none;" d="M109 72L110 73L109 72z"/>
<path style="fill:#19935d; stroke:none;" d="M110.667 72.3333L111.333 72.6667L110.667 72.3333z"/>
<path style="fill:#ce0d17; stroke:none;" d="M108 73L109 74L108 73z"/>
<path style="fill:#19935d; stroke:none;" d="M107 74L106 76L108 76L107 74M100 81L103 79L100 81M99 82L100 83L99 82M98 83L99 84L98 83M421 83L422 84L421 83M96 84L96 86L98 84L96 84z"/>
<path style="fill:#ce0d17; stroke:none;" d="M422 84L423 85L422 84z"/>
<path style="fill:#19935d; stroke:none;" d="M92 88L95 86L92 88M91 89L91 91L93 89L91 89z"/>
<path style="fill:#ce0d17; stroke:none;" d="M427 89L428 90L427 89z"/>
<path style="fill:#19935d; stroke:none;" d="M89 91L89 93L91 91L89 91M86 96L89 93L86 96z"/>
<path style="fill:#ce0d17; stroke:none;" d="M432 93L433 94L432 93z"/>
<path style="fill:#19935d; stroke:none;" d="M84 96L84 98L86 96L84 96z"/>
<path style="fill:#ce0d17; stroke:none;" d="M434 96L435 97L434 96z"/>
<path style="fill:#19935d; stroke:none;" d="M83 98L84 99L83 98M243.667 98.3333L244.333 98.6667L243.667 98.3333M274 98L274 99L278 99L274 98M81 100L82 101L81 100M225.667 100.333L226.333 100.667L225.667 100.333M290 100L290 101L293 101L290 100M79 101L74 107L81 102L79 101z"/>
<path style="fill:#ce0d17; stroke:none;" d="M441 103L447 109L441 103z"/>
<path style="fill:#19935d; stroke:none;" d="M73 107L64 119L73 107M74 108L74 110L76 108L74 108z"/>
<path style="fill:#ce0d17; stroke:none;" d="M447 109L447 110L512 110L491 109L447 109z"/>
<path style="fill:#19935d; stroke:none;" d="M72 110L67 116L70 116L71 115L70 113L72 110M250 110.424C223.386 113.92 198.371 119.185 175.996 135.375C101.439 189.323 89.6543 304.866 162.961 365.996C174.879 375.935 187.613 384.791 202 390.886C228.486 402.107 257.778 403.812 286 399.7C303.608 397.134 319.765 389.943 335.015 381.08C429.228 326.329 425.942 186.33 335.015 131C322.195 123.199 308.764 117.055 294 113.997C279.972 111.092 264.333 108.542 250 110.424z"/>
<path style="fill:#160f13; stroke:none;" d="M446 112L446 113L450 118L464 129L446 112z"/>
<path style="fill:#ce0d17; stroke:none;" d="M70 113L71 114L70 113z"/>
<path style="fill:#160f13; stroke:none;" d="M243 113.425C219.586 116.612 197.775 124.165 178 137.355C163.445 147.063 150.246 160.486 140.51 175C124.954 198.188 114.46 228.784 115.015 257C116.649 340.013 191.591 408.958 275 398.714C296.573 396.064 317.684 389.258 336 377.343C417.89 324.077 426.156 201.026 346 141.378C331.122 130.307 314.824 122.555 297 117.711C279.868 113.056 260.771 111.006 243 113.425z"/>
<path style="fill:#ce0d17; stroke:none;" d="M69 114L70 115L69 114M68 115L69 116L68 115z"/>
<path style="fill:#160f13; stroke:none;" d="M65 116L66 117L65 116z"/>
<path style="fill:#19935d; stroke:none;" d="M337 117L338 118L337 117M66 119L67 120L66 119M65 120L64 123L65 120M62.6667 124.333L63.3333 124.667L62.6667 124.333z"/>
<path style="fill:#160f13; stroke:none;" d="M455 124L455 125L455 126L458 126L462 136L463 137L464 135L465 135L464 139L468 140C465.692 132.981 461.875 127.206 455 124z"/>
<path style="fill:#19935d; stroke:none;" d="M60 126L59 131L60 131L63 126L60 126z"/>
<path style="fill:#ce0d17; stroke:none;" d="M458 127L464 133L458 127M57 132L58 133L57 132z"/>
<path style="fill:#19935d; stroke:none;" d="M58 132L57 136L58 136L58 132M55 134L56 135L55 134z"/>
<path style="fill:#ce0d17; stroke:none;" d="M55 135L54 140L55 140L55 135z"/>
<path style="fill:#19935d; stroke:none;" d="M55 139L56 140L55 139M54 140L55 141L54 140z"/>
<path style="fill:#160f13; stroke:none;" d="M465 141L465 142L467 145L470 145L465 141M470 150L471 151L470 150M472.667 154.333L473.333 154.667L472.667 154.333z"/>
<path style="fill:#19935d; stroke:none;" d="M308 201C295.232 192.015 284.409 179.538 273 168.91C269.538 165.686 264.218 157.636 259 157.636C254.408 157.636 249.922 164.078 247 167C237.388 176.611 227.991 186.635 217.829 195.665C202.379 209.396 187.618 224.382 173 239C168.513 243.487 159.276 249.695 160.167 256.941C161.095 264.486 173.166 259.014 177.682 262.028C181.714 264.718 180 273.836 180 278L180 323C180 327.125 178.338 336 181.028 339.397C183.261 342.216 189.849 341 193 341L224 341C226.98 341 232.853 342.073 234.972 339.397C240.401 332.542 229.447 315.61 243.001 315.019C251.633 314.643 260.359 315 269 315C272.103 315 276.861 314.166 279.566 316.028C286.354 320.699 278.465 333.636 283.028 339.397C285.261 342.216 291.849 341 295 341C305.546 341 326.247 345.039 335.682 340.397C339.507 338.515 338 330.471 338 327L338 286C338 280.564 335.525 266.682 339.603 262.603C344.091 258.116 356.823 265.026 358.472 256.941C360.516 246.927 343.127 238.895 339.179 231C333.455 219.551 343.064 202.601 337.397 191.434C335.514 187.723 328.38 189 325 189C313.793 189 308.008 188.187 308 201z"/>
<path style="fill:#e1dfdf; stroke:none;" d="M309 203C296.14 197.003 284.096 180.979 274 171.004C270.78 167.822 263.858 159.199 259 159.207C254.652 159.214 249.936 166.078 247.09 168.829C236.362 179.198 225.55 189.45 215 200C201.159 213.841 186.848 227.152 173 241C169.467 244.533 160.208 250.931 161.377 256.772C162.613 262.948 174.712 258.379 178.682 261.028C183.078 263.961 181 275.4 181 280L181 323C181 326.929 179.456 335.15 182.028 338.397C184.147 341.073 190.02 340 193 340L223 340C225.98 340 231.853 341.073 233.972 338.397C238.54 332.629 231.165 321.042 236.603 315.603C239.87 312.337 248.759 314 253 314C258.933 314 279.637 310.828 282.397 317.148C284.771 322.587 279.649 335.048 284.603 338.972C288.867 342.349 301.722 340 307 340C313.411 340 330.29 343.017 335.397 338.972C339.046 336.082 337 324.235 337 320C337 302.386 334.324 282.387 337.148 265.019C338.77 255.045 359.044 265.258 356.663 253.995C354.622 244.343 341.227 240.121 337.742 231C334.786 223.262 337 211.227 337 203C337 199.927 338.047 194.306 335.972 191.742C333.172 188.281 313.774 188.507 310.742 191.603C308.126 194.276 309 199.597 309 203z"/>
<path style="fill:#160f13; stroke:none;" d="M474 158L475 159L474 158M477 165L477 166L477 167L479 168L480 168L477 165M479.333 170.667L479.667 171.333L479.333 170.667M481.333 174.667L481.667 175.333L481.333 174.667M482 179L484 185L487 187L488 187L482 179z"/>
<path style="fill:#19935d; stroke:none;" d="M117 183L118 184L117 183z"/>
<path style="fill:#160f13; stroke:none;" d="M486 190L488 192L486 190M487 195L488 199L493 198L493 197L489 197L489 196L491 196L487 195M489 206L492 204C489.604 203.425 489.513 203.525 489 206z"/>
<path style="fill:#19935d; stroke:none;" d="M411 209L411 212L412 212L411 209z"/>
<path style="fill:#160f13; stroke:none;" d="M491 210L491 214L492 214L493 210L491 210M493 222L493 226L494 226L493 222M494 235L494 239L496 239L496 235L494 235z"/>
<path style="fill:#19935d; stroke:none;" d="M100 241L100 271L101 271L100 241z"/>
<path style="fill:#160f13; stroke:none;" d="M495 272L494 279L495 279L495 272M493 286L494 297L495 297L493 286M491 298L494 306L491 298z"/>
<path style="fill:#19935d; stroke:none;" d="M411.333 300.667L411.667 301.333L411.333 300.667M494 301L494 307L495 307L494 301z"/>
<path style="fill:#160f13; stroke:none;" d="M489 306L490 314C486.026 314.549 486.236 321.483 486 325L487 325L488 315L490 315L490 321L491 321L489 306M491.667 314.333L492.333 314.667L491.667 314.333z"/>
<path style="fill:#19935d; stroke:none;" d="M493 314L494 316L495 316L496 314L493 314z"/>
<path style="fill:#e1dfdf; stroke:none;" d="M495 315L494 321L496 321L495 315z"/>
<path style="fill:#ce0d17; stroke:none;" d="M23.3333 320.667L23.6667 321.333L23.3333 320.667M25 320L25 323L26 323L25 320M28 320L28 324L29 324L28 320z"/>
<path style="fill:#160f13; stroke:none;" d="M488 321L488 327L489 327L488 321z"/>
<path style="fill:#19935d; stroke:none;" d="M489 321L490 332L481 352L480 352L480 346L479 346L480 363L481 363L495 337L493 338L493 337L496 321L491 321L494 332L489 321z"/>
<path style="fill:#160f13; stroke:none;" d="M484 327L481 338L482 338L486 332L486 336L487 336L488 329L487 329L487 332L486 332L484 327z"/>
<path style="fill:#e1dfdf; stroke:none;" d="M491 327C491.064 329.993 490.946 331.346 494 332L491 327z"/>
<path style="fill:#19935d; stroke:none;" d="M117 328L118 329L117 328z"/>
<path style="fill:#e1dfdf; stroke:none;" d="M495 330L494 333L495 330M490 332L489 338L490 338L490 332z"/>
<path style="fill:#3de0d5; stroke:none;" d="M495 332L493 338L495 332z"/>
<path style="fill:#160f13; stroke:none;" d="M479 340L481 342L479 340z"/>
<path style="fill:#19935d; stroke:none;" d="M479.333 341.667L479.667 342.333L479.333 341.667z"/>
<path style="fill:#e1dfdf; stroke:none;" d="M479 343L479 346L480 346L479 343z"/>
<path style="fill:#160f13; stroke:none;" d="M477 345L477 347L479 347L479 345L477 345M476 351L474 352L474 356L477 355L477 359L479 359L476 351z"/>
<path style="fill:#e1dfdf; stroke:none;" d="M487 351L488 352L487 351z"/>
<path style="fill:#ce0d17; stroke:none;" d="M34 352L40 363L41 363L34 352z"/>
<path style="fill:#e1dfdf; stroke:none;" d="M479.333 353.667L479.667 354.333L479.333 353.667M486 353L487 354L486 353z"/>
<path style="fill:#160f13; stroke:none;" d="M44.3333 354.667L44.6667 355.333L44.3333 354.667z"/>
<path style="fill:#3de0d5; stroke:none;" d="M479 355L479 373L480 373L479 355z"/>
<path style="fill:#160f13; stroke:none;" d="M45 357L47 359L47 357L45 357M475 357L476 358L475 357M472 359L469 369L468 369L468 367L467 367L460 380L458 386L457 387L455 386L450 394L446 404L440 409L441 409L447 406C447.569 398.536 452.75 399.001 459 399C459 395.344 457.252 380.191 464 384L465 384L473 382L473 381L464 382L465 373L474 373L474 359L472 359M47.3333 360.667L47.6667 361.333L47.3333 360.667z"/>
<path style="fill:#e1dfdf; stroke:none;" d="M481 362L482 363L481 362z"/>
<path style="fill:#160f13; stroke:none;" d="M49 364L49 368L50 368L49 364z"/>
<path style="fill:#e1dfdf; stroke:none;" d="M480 364L481 365L480 364z"/>
<path style="fill:#160f13; stroke:none;" d="M53 371L54 372L53 371z"/>
<path style="fill:#19935d; stroke:none;" d="M474 373L474 381L477 380L474 382L474 399L473 399L473 387L471 387L469 399L468 399L466 394L464 406L460 406L463 399L459 399L456 406L459 407L459 408L448 408L448 407L450 407L450 406L446 407C446.669 411.328 446.288 413.419 442 415L443 427L444 425L445 425L445 428L446 428L446 424L447 424C447 430.597 448.97 441.005 445.972 447C436.553 465.838 412.175 477.716 400 495L434 462L447.397 447L448 411L450 409L459 411L465 400L468 400L468 405L469 405L469 400L477 399L477 394L478 394L478 398L479 398L479 373L474 373z"/>
<path style="fill:#e1dfdf; stroke:none;" d="M479 373L479 379L480 379L479 373z"/>
<path style="fill:#160f13; stroke:none;" d="M56 376L56 379L57 379L56 376z"/>
<path style="fill:#3de0d5; stroke:none;" d="M479 379L479 382L480 382L479 379z"/>
<path style="fill:#e1dfdf; stroke:none;" d="M478 381L479 382L478 381M479.333 382.667L479.667 383.333L479.333 382.667z"/>
<path style="fill:#3de0d5; stroke:none;" d="M479 384L480 385L479 384z"/>
<path style="fill:#160f13; stroke:none;" d="M464 385L463 393L464 393L464 385z"/>
<path style="fill:#e1dfdf; stroke:none;" d="M479 385L480 386L479 385M476 386L476 391L477 391L476 386z"/>
<path style="fill:#3de0d5; stroke:none;" d="M479 386L479 398L478 398L478 394L477 394L474 406C468.42 406.004 461.037 405.783 459 412L460 412L465 408L464 428L463 428L463 415L459 415C459 423.804 461.942 439.061 457.972 447C455.285 452.374 449.197 456.803 445 461C433.812 472.188 420.113 483.062 411 496L431 495.397L444 484L469 459L479.397 447L480 411L479 411L479 414L476 412L474 406L480 404L475 405L475 401L480 402L480 401L477 400L480 399L479 386z"/>
<path style="fill:#160f13; stroke:none;" d="M65 390L66 396L67 396L65 390z"/>
<path style="fill:#19935d; stroke:none;" d="M467 392L468 393L467 392M337 394L338 395L337 394z"/>
<path style="fill:#160f13; stroke:none;" d="M69 397L79 409L69 397z"/>
<path style="fill:#e1dfdf; stroke:none;" d="M473 398L474 399L473 398M474.667 399.333L475.333 399.667L474.667 399.333M477 399L477 401L480 401L480 399L477 399M465 400L465 406L474 406L474 401L469 400L469 405L468 405L468 400L465 400z"/>
<path style="fill:#160f13; stroke:none;" d="M450 401L450 402L455 402L450 401z"/>
<path style="fill:#19935d; stroke:none;" d="M475 401L475 405C476.813 403.444 476.813 402.556 475 401M461.333 402.667L461.667 403.333L461.333 402.667M473.333 402.667L473.667 403.333L473.333 402.667z"/>
<path style="fill:#e1dfdf; stroke:none;" d="M477 402L477 404L480 404L480 402L477 402z"/>
<path style="fill:#160f13; stroke:none;" d="M450 404L450 406L457 405L450 404z"/>
<path style="fill:#e1dfdf; stroke:none;" d="M455 406L459 408L459 407L455 406M464 406L465 407L464 406M474 406L476 412L479 414L480 406L474 406z"/>
<path style="fill:#160f13; stroke:none;" d="M445 407L446 408L445 407z"/>
<path style="fill:#19935d; stroke:none;" d="M465 407L466 408L465 407z"/>
<path style="fill:#3de0d5; stroke:none;" d="M479 407L480 408L479 407z"/>
<path style="fill:#19935d; stroke:none;" d="M441 408L441 412L442 412L445 409L441 408z"/>
<path style="fill:#e1dfdf; stroke:none;" d="M459 408L460 409L459 408M464.333 408.667L464.667 409.333L464.333 408.667M468 408L469 409L468 408z"/>
<path style="fill:#160f13; stroke:none;" d="M439 409L433 415L433 424L424 424L421.972 447L401.028 470L400 487L428 460L439.397 447L440 425L439 409z"/>
<path style="fill:#e1dfdf; stroke:none;" d="M448 411C448 420.778 451.37 438.204 446.972 447C444.285 452.374 438.197 456.803 434 461C422.812 472.188 409.113 483.062 400 496L411 496L421 486L444 463L459 448L459 433L458 410L448 411z"/>
<path style="fill:#19935d; stroke:none;" d="M463 409L460 410L459 415L462 415L463 409M225.667 411.333L226.333 411.667L225.667 411.333M290 411L290 412L293 412L290 411z"/>
<path style="fill:#e1dfdf; stroke:none;" d="M463 412L463 428L464 428L463 412z"/>
<path style="fill:#19935d; stroke:none;" d="M243.667 413.333L244.333 413.667L243.667 413.333M274 413L274 414L278 414L274 413M450 414L451 415L450 414z"/>
<path style="fill:#e1dfdf; stroke:none;" d="M460 414L461 415L460 414M465 414L465 420L468 420L468 414L465 414M469 414L469 416L471 414L469 414M469 417L470 418L469 417z"/>
<path style="fill:#ce0d17; stroke:none;" d="M86 418L88 420L86 418M444 420L445 421L444 420z"/>
<path style="fill:#e1dfdf; stroke:none;" d="M465 424L468 421L465 424z"/>
<path style="fill:#160f13; stroke:none;" d="M92 422L93 423L92 422z"/>
<path style="fill:#e1dfdf; stroke:none;" d="M441 424C441.329 431.124 444.446 441.586 440.397 448C433.364 459.139 420.309 468.691 411 478C406.228 482.772 400.536 486.894 400 494L433 462L446.397 447L447 424L446 424L446 428L445 428L445 425L444 425L443 427L441 424z"/>
<path style="fill:#ce0d17; stroke:none;" d="M93 425L95 427L93 425z"/>
<path style="fill:#19935d; stroke:none;" d="M441 428L442 429L441 428z"/>
<path style="fill:#e1dfdf; stroke:none;" d="M463 429L462.397 446L449 461L416 495C427.838 486.661 437.764 474.236 448 464C452.773 459.227 459.922 454.101 462.972 448C465.22 443.505 464.904 433.537 463 429z"/>
<path style="fill:#19935d; stroke:none;" d="M441 430L441 448L442 448L441 430z"/>
<path style="fill:#160f13; stroke:none;" d="M411 436L404 442C402.861 446.006 399.967 447.398 396 448L396 450C401.637 449.13 411.13 442.134 411 436M118 445L121 448L118 445z"/>
<path style="fill:#19935d; stroke:none;" d="M440 448L441 449L440 448M439 449L440 450L439 449z"/>
<path style="fill:#160f13; stroke:none;" d="M125 450L126 451L125 450M393 450L393 451L400 452L400 451L393 450z"/>
<path style="fill:#19935d; stroke:none;" d="M438 450L439 451L438 450M437 451L438 452L437 451z"/>
<path style="fill:#160f13; stroke:none;" d="M391 452L388 453L376 465L380 465C380.784 460.194 383.395 459.253 388 459L388 455L393 453L391 452z"/>
<path style="fill:#19935d; stroke:none;" d="M436 452L437 453L436 452z"/>
<path style="fill:#160f13; stroke:none;" d="M129 453L131 455L131 453L129 453z"/>
<path style="fill:#19935d; stroke:none;" d="M391 454L391 455L396 453L391 454M435 453L436 454L435 453M434 454L435 455L434 454z"/>
<path style="fill:#160f13; stroke:none;" d="M133 455L134 456L133 455z"/>
<path style="fill:#19935d; stroke:none;" d="M396 455L396 456L400 456L396 455M433 455L434 456L433 455z"/>
<path style="fill:#160f13; stroke:none;" d="M389 456L390 457L389 456z"/>
<path style="fill:#19935d; stroke:none;" d="M391 456L391 457L394 457L391 456M432 456L433 457L432 456M389 459L385 467L388 468L388 469L385 469C385.579 470.91 385.985 472.334 387 470L388 470L388 474L380 473L380 469L373 469L373 473L380 473L380 474L368 474C367.809 490.122 350.61 475.377 348 487L338 486L338 488C342.509 488.012 349.264 486.983 352 491L360 488L355 488L355 486L368 486L368 485L355 485L355 484L380 481L380 480L376 480L375 476L380 476L380 479L388 479L389 467L394 464L392 463L392 462L395 462L395 461L392 461L392 460L400 461L400 457L389 459M431 457L432 458L431 457M430 458L431 459L430 458z"/>
<path style="fill:#160f13; stroke:none;" d="M138 459L139 460L138 459M388 459L389 460L388 459z"/>
<path style="fill:#e1dfdf; stroke:none;" d="M397 459L398 460L397 459M399 459L400 460L399 459z"/>
<path style="fill:#19935d; stroke:none;" d="M429 459L430 460L429 459z"/>
<path style="fill:#160f13; stroke:none;" d="M385 460L385 461L388 461L385 460z"/>
<path style="fill:#ce0d17; stroke:none;" d="M390 460L391 461L390 460z"/>
<path style="fill:#e1dfdf; stroke:none;" d="M392 460L392 461L395 461L395 462L392 462L392 463C393.96 463.653 394.554 464 392 464L392 465L397 465L396 468L400 468L397 465L397 462L400 462L392 460z"/>
<path style="fill:#19935d; stroke:none;" d="M428 460L429 461L428 460M427 461L428 462L427 461z"/>
<path style="fill:#160f13; stroke:none;" d="M385 462L385 463L388 463L385 462z"/>
<path style="fill:#ce0d17; stroke:none;" d="M390 462L390 465L391 465L390 462z"/>
<path style="fill:#19935d; stroke:none;" d="M397 462L397 465L400 465L400 464C398.04 463.347 397.446 463 400 463L397 462M426 462L427 463L426 462z"/>
<path style="fill:#e1dfdf; stroke:none;" d="M398.667 463.333L399.333 463.667L398.667 463.333z"/>
<path style="fill:#19935d; stroke:none;" d="M425 463L426 464L425 463z"/>
<path style="fill:#160f13; stroke:none;" d="M370 464L371 465L370 464M373 464L374 465L373 464M385 464L385 465L388 465L385 464z"/>
<path style="fill:#19935d; stroke:none;" d="M424 464L425 465L424 464z"/>
<path style="fill:#160f13; stroke:none;" d="M367 465L365 469L353 472L353 473L368 474L369 465L367 465z"/>
<path style="fill:#19935d; stroke:none;" d="M379 465L373 467L373 468C375.535 467.99 380.356 468.598 379 465M381 465L382 466L381 465z"/>
<path style="fill:#3de0d5; stroke:none;" d="M389 467L390 474L396 474L393 476L396 481C393.666 482.015 395.09 482.421 397 483L397 484L394 484L394 485L397 485L397 486L392 486L392 488L397 488L397 489L397 492L392 492L392 496L400 496C400 491.193 402.416 473.681 397 473L396 469L400 469L400 468L396 468L397 465L389 467z"/>
<path style="fill:#19935d; stroke:none;" d="M423 465L424 466L423 465M422 466L423 467L422 466M370 467L371 468L370 467z"/>
<path style="fill:#e1dfdf; stroke:none;" d="M384 467L385 468L384 467z"/>
<path style="fill:#19935d; stroke:none;" d="M421 467L422 468L421 467M380 468L380 469L383 469L380 468z"/>
<path style="fill:#e1dfdf; stroke:none;" d="M385 468L385 469L388 469L385 468z"/>
<path style="fill:#19935d; stroke:none;" d="M420 468L421 469L420 468M370 469L370 473L371 473L370 469z"/>
<path style="fill:#e1dfdf; stroke:none;" d="M380 473L388 474L388 470L387 470L386 472L385 469L380 473z"/>
<path style="fill:#19935d; stroke:none;" d="M390 469L391 470L390 469z"/>
<path style="fill:#e1dfdf; stroke:none;" d="M396 469L397 473L400 473L400 469L396 469z"/>
<path style="fill:#19935d; stroke:none;" d="M419 469L420 470L419 469M418 470L419 471L418 470M417 471L418 472L417 471z"/>
<path style="fill:#160f13; stroke:none;" d="M165 472L166 473L165 472z"/>
<path style="fill:#19935d; stroke:none;" d="M416 472L417 473L416 472z"/>
<path style="fill:#e1dfdf; stroke:none;" d="M388 474L389 482L380 482L380 481L382 480L380 476L375 476L376 480L380 480L380 481L376 481L376 482L380 482L380 488L368 488L370 485L368 485L368 484L370 483L369 482L355 484L355 485L368 485L368 486L355 486L355 488L368 488L368 496L369 496L369 492L380 492L380 496L382 496L382 492L388 492L388 496L390 496L390 492L391 492L391 496L392 496L392 492L397 492L397 489L397 488L392 488L392 486L397 486L397 485L394 485L394 484L397 484L397 483L396 481L393 476L396 476L396 474L388 474z"/>
<path style="fill:#19935d; stroke:none;" d="M415 473L416 474L415 473z"/>
<path style="fill:#160f13; stroke:none;" d="M348 476L333 481L333 482L353 481L353 480L349 480L352 474L348 476z"/>
<path style="fill:#19935d; stroke:none;" d="M414 474L415 475L414 474z"/>
<path style="fill:#160f13; stroke:none;" d="M172 475L172 477L174 477L172 475z"/>
<path style="fill:#19935d; stroke:none;" d="M413 475L414 476L413 475z"/>
<path style="fill:#e1dfdf; stroke:none;" d="M370.333 476.667L370.667 477.333L370.333 476.667M373.333 476.667L373.667 477.333L373.333 476.667z"/>
<path style="fill:#3de0d5; stroke:none;" d="M388 476L380 479L380 480C381.96 480.653 382.554 481 380 481L380 482L389 482L388 476M390 476L390 480L391 480L390 476z"/>
<path style="fill:#19935d; stroke:none;" d="M412 476L413 477L412 476M411 477L412 478L411 477M410 478L411 479L410 478M409 479L410 480L409 479z"/>
<path style="fill:#ce0d17; stroke:none;" d="M336 480L336 481L339 481L336 480M347.667 480.333L348.333 480.667L347.667 480.333z"/>
<path style="fill:#160f13; stroke:none;" d="M354 480L355 481L354 480z"/>
<path style="fill:#19935d; stroke:none;" d="M408 480L409 481L408 480z"/>
<path style="fill:#160f13; stroke:none;" d="M329 481L329 482L332 482L329 481z"/>
<path style="fill:#3de0d5; stroke:none;" d="M390 481L391 482L390 481z"/>
<path style="fill:#19935d; stroke:none;" d="M407 481L408 482L407 481M345.667 482.333L346.333 482.667L345.667 482.333z"/>
<path style="fill:#e1dfdf; stroke:none;" d="M360.667 482.333L361.333 482.667L360.667 482.333M363 482L363 483L367 483L363 482z"/>
<path style="fill:#3de0d5; stroke:none;" d="M369 482L368 484L368 485L370 485L370 486L368 488L380 488L380 482L369 482z"/>
<path style="fill:#19935d; stroke:none;" d="M406 482L407 483L406 482z"/>
<path style="fill:#160f13; stroke:none;" d="M332 483L333 484L332 483z"/>
<path style="fill:#e1dfdf; stroke:none;" d="M371.667 483.333L372.333 483.667L371.667 483.333z"/>
<path style="fill:#19935d; stroke:none;" d="M405 483L406 484L405 483z"/>
<path style="fill:#160f13; stroke:none;" d="M199 484L200 485L199 484z"/>
<path style="fill:#ce0d17; stroke:none;" d="M325 484L326 485L325 484z"/>
<path style="fill:#19935d; stroke:none;" d="M335 484L336 485L335 484M339 484L339 485L347 485L339 484z"/>
<path style="fill:#3de0d5; stroke:none;" d="M383 484L383 485L388 485L383 484z"/>
<path style="fill:#19935d; stroke:none;" d="M404 484L405 485L404 484z"/>
<path style="fill:#160f13; stroke:none;" d="M332 485L333 486L332 485z"/>
<path style="fill:#e1dfdf; stroke:none;" d="M371.667 485.333L372.333 485.667L371.667 485.333M374 485L375 486L374 485z"/>
<path style="fill:#19935d; stroke:none;" d="M403 485L404 486L403 485M335 486L335 488L337 488L337 486L335 486z"/>
<path style="fill:#e1dfdf; stroke:none;" d="M353 486L354 487L353 486z"/>
<path style="fill:#3de0d5; stroke:none;" d="M382 486L382 488L388 488L388 486L382 486M390.333 486.667L390.667 487.333L390.333 486.667z"/>
<path style="fill:#19935d; stroke:none;" d="M402 486L403 487L402 486M330 487L331 488L330 487M401 487L402 488L401 487z"/>
<path style="fill:#ce0d17; stroke:none;" d="M303 491L311 491L311 492L303 492L303 496L326 496L326 492L321 492L321 491L325 491L325 488C319.042 488 306.55 485.523 303 491z"/>
<path style="fill:#19935d; stroke:none;" d="M321 491L321 492L326 492L326 496L327 496L330 492L330 496L332 496L334 492L333 496L347 496L331 488L332 491L330 488L321 491z"/>
<path style="fill:#e1dfdf; stroke:none;" d="M333 489L349 496L349 492L353 492L353 491L349 491L352 489L333 489z"/>
<path style="fill:#3de0d5; stroke:none;" d="M353 491L353 492L368 496L368 488L353 491z"/>
<path style="fill:#19935d; stroke:none;" d="M400 488L401 489L400 488z"/>
<path style="fill:#160f13; stroke:none;" d="M290 489L291 491L292 491L293 489L290 489z"/>
<path style="fill:#e1dfdf; stroke:none;" d="M330 489L330 491L332 491L332 489L330 489z"/>
<path style="fill:#3de0d5; stroke:none;" d="M349 491L352 490L349 491M370 489L371 490L370 489M373 489L374 490L373 489M376 489L376 491L380 491L380 489L376 489M385 489L385 490L388 490L385 489z"/>
<path style="fill:#19935d; stroke:none;" d="M346 492L349 492L348 490L346 492M313 491L313 492L317 492L313 491z"/>
<path style="fill:#e1dfdf; stroke:none;" d="M354 491L355 492L354 491M328 492L330 494L330 492L328 492M332.667 492.333L333.333 492.667L332.667 492.333z"/>
<path style="fill:#3de0d5; stroke:none;" d="M349 492L350 493L349 492z"/>
<path style="fill:#19935d; stroke:none;" d="M349 496C352.363 496 355.204 496.716 356 493L365 496C361.914 491.185 351.079 489.737 349 496z"/>
<path style="fill:#3de0d5; stroke:none;" d="M369 492L369 496L380 496L380 492L369 492M382 492L382 496L388 496L388 492L382 492M390 492L390 496L391 496L390 492z"/>
<path style="fill:#ce0d17; stroke:none;" d="M327 493L330 496L329 493L327 493M332 493L332 496L333 496L332 493z"/>
<path style="fill:#e1dfdf; stroke:none;" d="M356 493L360 496L356 493M415 495L416 496L415 495z"/>
</svg>
