<?xml version="1.0" standalone="no"?>
<!DOCTYPE svg PUBLIC "-//W3C//DTD SVG 20010904//EN"
 "http://www.w3.org/TR/2001/REC-SVG-20010904/DTD/svg10.dtd">
<svg version="1.0" xmlns="http://www.w3.org/2000/svg"
 width="512.000000pt" height="512.000000pt" viewBox="0 0 512.000000 512.000000"
 preserveAspectRatio="xMidYMid meet">
<metadata>
Created by potrace 1.16, written by Peter Selinger 2001-2019
</metadata>
<g transform="translate(0.000000,512.000000) scale(0.100000,-0.100000)"
fill="#000000" stroke="none">
<path d="M2 3953 c1 -643 3 -1150 5 -1128 8 78 44 281 68 375 65 258 189 538
337 760 121 182 167 240 313 389 187 191 365 330 562 437 130 71 365 176 473
212 120 40 328 87 445 101 50 6 101 13 115 15 14 2 -503 4 -1147 5 l-1173 1 2
-1167z"/>
<path d="M2894 5104 c448 -58 900 -248 1259 -531 93 -73 347 -327 420 -420
293 -372 484 -835 536 -1303 5 -44 9 404 10 1098 l1 1172 -1167 -1 c-1050 -1
-1157 -3 -1059 -15z"/>
<path d="M2345 4713 c-416 -50 -760 -185 -1085 -426 -122 -91 -336 -305 -428
-429 -287 -385 -432 -821 -432 -1298 0 -583 220 -1113 634 -1526 333 -332 708
-526 1181 -611 155 -28 548 -25 710 4 459 83 840 283 1165 612 415 417 630
938 630 1521 0 471 -141 900 -421 1284 -93 127 -314 350 -441 444 -306 228
-650 368 -1021 417 -106 13 -406 19 -492 8z m415 -1503 l0 -450 450 0 450 0 0
-200 0 -200 -450 0 -450 0 0 -450 0 -450 -200 0 -200 0 0 450 0 450 -450 0
-450 0 0 200 0 200 450 0 450 0 0 450 0 450 200 0 200 0 0 -450z"/>
<path d="M5103 2232 c-34 -319 -169 -709 -348 -1002 -188 -310 -476 -608 -790
-818 -297 -198 -704 -349 -1071 -396 -98 -12 9 -14 1059 -15 l1167 -1 0 1170
c0 644 -1 1170 -3 1170 -1 0 -8 -49 -14 -108z"/>
<path d="M2 1168 l-2 -1168 1168 1 c1049 1 1156 3 1058 15 -1031 132 -1895
898 -2151 1904 -24 94 -60 297 -68 375 -2 22 -4 -485 -5 -1127z"/>
</g>
</svg>
