<?xml version="1.0" standalone="no"?>
<!DOCTYPE svg PUBLIC "-//W3C//DTD SVG 20010904//EN"
 "http://www.w3.org/TR/2001/REC-SVG-20010904/DTD/svg10.dtd">
<svg version="1.0" xmlns="http://www.w3.org/2000/svg"
 width="512.000000pt" height="512.000000pt" viewBox="0 0 512.000000 512.000000"
 preserveAspectRatio="xMidYMid meet">
<metadata>
Created by potrace 1.16, written by Peter Selinger 2001-2019
</metadata>
<g transform="translate(0.000000,512.000000) scale(0.100000,-0.100000)"
fill="#000000" stroke="none">
<path d="M0 2560 l0 -2560 2560 0 2560 0 0 2560 0 2560 -2560 0 -2560 0 0
-2560z m4126 1423 c-3 -21 -20 -157 -36 -303 -16 -146 -33 -282 -36 -302 l-6
-38 -218 0 c-144 0 -228 -4 -244 -11 -37 -17 -53 -72 -31 -105 25 -38 54 -44
221 -44 l154 0 -4 -22 c-3 -13 -51 -427 -108 -920 l-103 -898 -1292 0 c-711 0
-1293 1 -1294 3 -1 1 -49 415 -108 919 l-107 918 1218 2 1217 3 22 22 c31 30
28 81 -6 111 l-26 22 -1134 0 -1134 0 -6 33 c-2 17 -19 154 -35 302 -17 149
-33 287 -36 308 l-6 37 1572 0 1572 0 -6 -37z m-330 -2845 c-3 -24 -28 -245
-56 -493 -28 -247 -53 -460 -56 -472 l-4 -23 -791 0 -790 0 -24 -25 c-14 -13
-25 -31 -25 -40 0 -12 -14 -15 -75 -15 -61 0 -75 3 -75 15 0 9 -11 27 -25 40
-24 25 -25 25 -229 25 -205 0 -206 0 -210 22 -5 21 -116 983 -116 1001 0 4
559 7 1241 7 l1241 0 -6 -42z"/>
<path d="M2428 2881 c-313 -100 -472 -529 -320 -863 81 -178 218 -292 387
-321 162 -28 336 50 447 200 223 302 144 765 -159 942 -108 62 -241 78 -355
42z"/>
</g>
</svg>
