<?xml version="1.0" standalone="no"?>
<!DOCTYPE svg PUBLIC "-//W3C//DTD SVG 20010904//EN"
 "http://www.w3.org/TR/2001/REC-SVG-20010904/DTD/svg10.dtd">
<svg version="1.0" xmlns="http://www.w3.org/2000/svg"
 width="512.000000pt" height="512.000000pt" viewBox="0 0 512.000000 512.000000"
 preserveAspectRatio="xMidYMid meet">
<metadata>
Created by potrace 1.16, written by Peter Selinger 2001-2019
</metadata>
<g transform="translate(0.000000,512.000000) scale(0.100000,-0.100000)"
fill="#000000" stroke="none">
<path d="M0 2560 l0 -2560 2560 0 2560 0 0 2560 0 2560 -2560 0 -2560 0 0
-2560z m1565 2007 c219 -62 337 -139 581 -379 189 -186 198 -192 253 -164 27
14 29 14 66 -24 36 -37 37 -39 21 -61 -25 -36 -20 -76 13 -110 31 -31 63 -36
97 -16 12 7 132 125 268 264 136 138 279 276 319 307 133 101 288 170 455 202
98 19 299 18 402 -2 390 -74 715 -361 844 -745 77 -230 75 -524 -5 -763 -38
-114 -109 -252 -176 -340 -55 -74 -2133 -2218 -2145 -2214 -6 3 -1826 1873
-2023 2079 -245 257 -355 528 -355 871 0 543 359 995 880 1109 128 28 380 21
505 -14z"/>
<path d="M1123 4425 c-188 -34 -351 -119 -492 -258 -83 -82 -140 -162 -195
-278 -64 -132 -87 -227 -93 -384 -11 -265 40 -383 146 -339 48 20 57 51 41
136 -20 107 -16 267 9 363 59 226 217 424 415 520 89 43 211 75 283 75 118 0
174 81 104 151 -26 26 -36 29 -88 28 -32 0 -90 -7 -130 -14z"/>
<path d="M2613 3580 c-12 -5 -29 -19 -37 -32 -18 -28 -186 -695 -186 -738 0
-44 39 -80 85 -80 68 0 73 11 168 393 48 191 87 362 87 380 0 56 -65 99 -117
77z"/>
<path d="M1943 3347 c-137 -137 -153 -156 -153 -187 0 -30 16 -50 154 -189
144 -144 157 -155 192 -155 45 0 84 39 84 86 0 26 -17 49 -110 142 l-109 111
109 111 c94 95 110 116 110 143 0 45 -47 91 -91 91 -29 0 -51 -18 -186 -153z"/>
<path d="M2929 3471 c-20 -20 -29 -39 -29 -62 0 -27 16 -48 110 -143 l109
-111 -109 -111 c-93 -93 -110 -116 -110 -142 0 -47 39 -86 84 -86 35 0 48 11
192 155 138 139 154 159 154 189 0 31 -16 50 -153 187 -135 135 -157 153 -186
153 -23 0 -41 -9 -62 -29z"/>
<path d="M550 2955 c-37 -40 -31 -84 22 -149 65 -81 117 -98 163 -51 48 47 22
128 -68 208 -30 26 -88 22 -117 -8z"/>
<path d="M1645 2535 c-17 -16 -25 -35 -25 -60 0 -25 8 -44 25 -60 21 -22 33
-25 100 -25 88 0 107 8 125 49 15 37 7 74 -22 101 -18 17 -35 20 -100 20 -70
0 -82 -3 -103 -25z"/>
<path d="M2075 2535 c-17 -16 -25 -35 -25 -60 0 -25 8 -44 25 -60 l24 -25 676
0 676 0 24 25 c34 33 34 87 0 120 l-24 25 -676 0 -676 0 -24 -25z"/>
<path d="M1646 2194 c-55 -55 -22 -135 62 -149 135 -22 222 67 143 146 -27 27
-35 29 -104 29 -67 0 -77 -3 -101 -26z"/>
<path d="M2075 2195 c-35 -34 -34 -93 1 -126 25 -23 30 -24 186 -24 l160 0 30
34 c24 27 29 39 24 65 -3 17 -17 41 -32 54 -24 21 -33 22 -185 22 -156 0 -160
-1 -184 -25z"/>
<path d="M2676 2198 c-15 -13 -29 -37 -32 -54 -5 -26 0 -38 24 -65 l30 -34
160 0 c156 0 161 1 186 24 35 33 36 92 1 126 -24 24 -28 25 -184 25 -152 0
-161 -1 -185 -22z"/>
<path d="M1649 1851 c-58 -59 -24 -138 63 -148 138 -16 217 69 139 148 -27 27
-35 29 -101 29 -66 0 -74 -2 -101 -29z"/>
<path d="M2075 1855 c-35 -34 -34 -93 1 -126 24 -23 34 -24 162 -27 82 -2 152
1 174 8 70 20 87 106 31 150 -23 18 -41 20 -185 20 -155 0 -159 -1 -183 -25z"/>
<path d="M2677 1860 c-53 -42 -39 -127 24 -149 46 -16 193 -14 234 4 60 24 72
89 26 136 -29 29 -31 29 -144 29 -99 0 -118 -3 -140 -20z"/>
<path d="M3185 1855 c-37 -36 -37 -86 1 -125 23 -24 30 -25 145 -25 120 0 121
0 145 28 33 39 31 81 -5 118 -29 29 -31 29 -146 29 -110 0 -117 -1 -140 -25z"/>
</g>
</svg>
