<?xml version="1.0" standalone="no"?>
<!DOCTYPE svg PUBLIC "-//W3C//DTD SVG 20010904//EN"
 "http://www.w3.org/TR/2001/REC-SVG-20010904/DTD/svg10.dtd">
<svg version="1.0" xmlns="http://www.w3.org/2000/svg"
 width="512.000000pt" height="512.000000pt" viewBox="0 0 512.000000 512.000000"
 preserveAspectRatio="xMidYMid meet">
<metadata>
Created by potrace 1.16, written by Peter Selinger 2001-2019
</metadata>
<g transform="translate(0.000000,512.000000) scale(0.100000,-0.100000)"
fill="#000000" stroke="none">
<path d="M0 2560 l0 -2560 535 0 535 0 0 242 0 242 -42 46 -43 45 48 -45 47
-44 0 -243 0 -243 1345 0 1345 0 0 242 0 243 -72 75 -73 75 78 -75 77 -74 0
-243 c0 -155 4 -243 10 -243 6 0 10 87 10 242 l0 242 -52 53 c-67 68 -54 69
18 2 l54 -52 0 -243 0 -244 650 0 650 0 0 430 0 430 -244 0 c-224 0 -245 1
-249 18 -4 16 -5 16 -6 0 0 -10 -5 -18 -11 -18 -5 0 -10 8 -11 18 0 14 -2 14
-9 -3 -8 -19 -9 -19 -9 3 l-1 22 270 0 c263 0 270 0 270 20 0 19 -7 20 -244
20 -186 0 -246 3 -249 13 -4 10 -6 10 -6 0 -1 -7 -6 -13 -12 -13 -5 0 -7 5 -4
10 3 6 2 10 -4 10 -5 0 -12 -10 -14 -22 -2 -13 -5 13 -6 57 -1 44 -5 75 -9 68
-7 -11 -2226 4015 -2223 4034 0 4 5 8 10 8 5 0 13 3 17 8 4 4 -529 7 -1184 7
l-1192 0 0 -2560z m2064 2358 c-10 -13 -37 -43 -61 -68 l-42 -45 -9 -180 -9
-180 -1 180 -2 179 67 68 c67 68 93 88 57 46z m-271 -375 c-73 -2 -193 -2
-265 0 -73 1 -14 3 132 3 146 0 205 -2 133 -3z m15 -30 c-65 -2 -171 -2 -235
0 -65 1 -12 3 117 3 129 0 182 -2 118 -3z m4 -20 c-62 -2 -161 -2 -220 0 -59
1 -8 3 113 3 121 0 169 -2 107 -3z m-992 -56 c0 -1 -28 -29 -62 -62 l-63 -60
60 63 c55 58 65 67 65 59z m-213 -225 c-44 -44 -47 -52 -49 -102 l-2 -55 -3
54 c-4 53 -3 55 44 103 26 26 49 48 52 48 3 0 -16 -22 -42 -48z m11 -567 l37
-40 -42 40 c-36 33 -43 45 -41 75 l1 35 4 -35 c3 -23 17 -49 41 -75z m1776
-175 c14 0 26 -4 26 -10 0 -6 56 -10 148 -10 l148 0 44 -45 44 -45 80 0 80 0
-54 58 -55 57 60 -57 c40 -38 69 -58 85 -58 24 0 23 1 -10 38 -19 20 18 -15
83 -78 l117 -115 -456 -3 c-252 -1 -459 0 -462 2 -2 3 -1 21 2 40 5 28 10 33
26 29 17 -4 20 0 20 26 0 23 -5 31 -18 31 -10 0 -23 5 -30 12 -7 7 -12 9 -12
5 0 -4 -13 5 -30 20 -20 17 -30 36 -30 55 0 28 1 28 59 28 51 0 59 3 64 21 5
17 9 19 26 10 11 -6 31 -11 45 -11z m-251 -118 c17 -15 57 -95 57 -113 0 -19
-61 -5 -172 40 -21 8 -28 18 -28 37 0 24 3 26 36 22 32 -4 35 -2 32 17 -4 18
-1 20 26 17 17 -3 39 -11 49 -20z m962 -13 c24 -22 45 -40 47 -39 9 4 38 -13
38 -22 0 -6 -6 -5 -15 2 -30 25 -14 3 22 -31 20 -18 31 -26 24 -16 -7 9 -10
17 -7 17 10 0 91 -91 91 -102 0 -5 7 -15 16 -21 15 -12 55 -67 48 -67 -3 0
-76 72 -164 160 -88 88 -156 160 -152 160 4 0 27 -18 52 -41z m105 -79 c0 -5
-2 -10 -4 -10 -3 0 -8 5 -11 10 -3 6 -1 10 4 10 6 0 11 -4 11 -10z m-953 -47
c-3 -10 -5 -4 -5 12 0 17 2 24 5 18 2 -7 2 -21 0 -30z m-417 -119 c6 -14 8
-29 5 -34 -3 -4 2 -10 10 -13 27 -11 81 -137 58 -137 -3 0 -41 20 -84 45 -62
37 -78 51 -81 73 -4 26 -2 28 27 25 16 -2 24 0 18 3 -7 3 -13 19 -13 35 0 24
4 29 25 29 18 0 28 -7 35 -26z m208 -166 c-18 -23 -38 -53 -45 -67 l-11 -26
-1 25 c-1 16 13 39 41 67 53 54 59 55 16 1z m1157 -118 c88 -88 158 -160 155
-160 -3 0 -77 72 -165 160 -88 88 -158 160 -155 160 3 0 77 -72 165 -160z
m-1477 93 c5 -10 8 -27 7 -38 -1 -11 -2 -30 -3 -42 -2 -18 -8 -23 -32 -23
l-30 0 0 60 c0 57 1 60 25 60 13 0 28 -8 33 -17z m1729 -500 c-1 -93 -3 -17
-3 167 0 184 2 260 3 168 2 -93 2 -243 0 -335z m38 352 c21 -101 21 -277 0
-374 -8 -41 -18 -77 -20 -80 -3 -2 -5 119 -5 269 0 150 2 271 4 269 2 -2 12
-40 21 -84z m-225 -430 l0 -241 -35 -34 c-30 -29 -35 -41 -35 -80 0 -44 -3
-49 -80 -125 l-80 -80 0 78 0 77 -40 0 -40 0 0 80 0 80 120 0 120 0 0 -27 0
-27 30 29 30 29 0 240 0 240 -42 46 -43 45 48 -45 47 -44 0 -241z m-1087 -325
l242 -245 -247 245 -248 245 2 120 2 120 3 -120 4 -120 242 -245z m964 248
c-2 -18 -4 -6 -4 27 0 33 2 48 4 33 2 -15 2 -42 0 -60z m-1387 -125 c0 -8 -9
0 -50 45 l-45 47 48 -45 c26 -24 47 -45 47 -47z m-1200 -346 l85 -3 -85 -2
-85 -2 -155 158 -155 157 155 -152 155 -152 85 -4z m1795 114 c71 -72 125
-131 120 -131 -6 0 -82 73 -170 162 -88 88 -142 147 -120 130 22 -17 98 -89
170 -161z m-450 17 c88 -89 148 -152 134 -140 -14 12 -29 20 -32 17 -4 -3 -5
-2 -2 2 3 4 -56 69 -132 145 -76 76 -135 138 -133 138 3 0 77 -73 165 -162z
m1015 106 c0 -17 -22 -14 -28 4 -2 7 3 12 12 12 9 0 16 -7 16 -16z m419 -1
c-59 -77 -94 -114 -97 -103 -2 6 20 36 49 66 54 54 73 69 48 37z m-2779 -206
l85 -3 -85 -2 -85 -2 -105 108 -105 107 105 -102 105 -102 85 -4z m1335 83
c44 -44 77 -80 75 -80 -3 0 -41 36 -85 80 -44 44 -77 80 -75 80 3 0 41 -36 85
-80z m843 -217 c-97 -2 -259 -2 -360 0 -101 1 -21 2 177 2 198 0 280 -1 183
-2z m-110 -62 c-36 -3 -99 -3 -140 0 -54 4 -38 6 67 6 97 0 120 -2 73 -6z
m1932 -871 l0 -260 -30 0 -30 0 0 210 0 210 25 0 c23 0 25 3 25 50 0 28 2 50
5 50 3 0 5 -117 5 -260z m-251 -192 l40 -63 -34 -3 c-51 -5 -115 48 -115 95 0
31 2 33 35 33 31 0 38 -5 74 -62z m-134 32 c3 -6 -4 -10 -17 -10 -18 0 -20 2
-8 10 19 12 18 12 25 0z m-977 -289 c5 -31 -11 -45 -42 -37 -21 5 -26 12 -26
37 0 28 2 30 33 27 25 -2 33 -8 35 -27z m-178 -190 c0 -10 -7 -22 -16 -25 -23
-9 -24 -8 -24 19 0 18 5 25 20 25 13 0 20 -7 20 -19z"/>
<path d="M3260 3185 c19 -19 36 -35 39 -35 3 0 -10 16 -29 35 -19 19 -36 35
-39 35 -3 0 10 -16 29 -35z"/>
<path d="M2806 5111 l72 -6 83 -81 c46 -44 150 -148 232 -230 l147 -149 0 -82
0 -83 90 0 c73 0 90 -3 90 -15 0 -13 -26 -15 -167 -17 l-168 -2 170 -6 170 -5
-140 -6 -140 -5 138 -2 c92 -1 137 -6 137 -13 0 -6 25 12 56 41 31 28 83 64
115 81 116 58 125 59 807 59 l622 0 0 265 0 265 -1192 -2 c-656 -1 -1161 -4
-1122 -7z"/>
<path d="M3197 4700 l52 -55 4 -85 3 -85 2 85 2 86 -57 54 -58 55 52 -55z"/>
<path d="M3388 4383 c23 -2 61 -2 85 0 23 2 4 4 -43 4 -47 0 -66 -2 -42 -4z"/>
<path d="M4570 3635 c0 -32 -2 -35 -30 -35 -21 0 -30 -5 -30 -16 0 -8 5 -12
10 -9 19 12 50 -6 50 -29 0 -12 15 -36 33 -54 l33 -32 242 0 242 0 0 105 0
105 -275 0 -275 0 0 -35z"/>
<path d="M4992 2110 c0 -14 2 -19 5 -12 2 6 2 18 0 25 -3 6 -5 1 -5 -13z"/>
<path d="M4940 2055 c0 -9 -9 -15 -25 -15 -20 0 -25 -5 -25 -25 0 -28 -3 -29
-31 -15 -13 8 -19 7 -19 0 0 -6 -4 -8 -10 -5 -5 3 -10 -3 -10 -14 0 -12 5 -21
12 -21 9 0 9 -3 0 -12 -7 -7 -12 -16 -12 -20 0 -4 68 -8 150 -8 l150 0 0 24
c0 18 -14 33 -60 62 -33 22 -60 45 -60 53 0 11 -4 9 -14 -5 -14 -18 -15 -18
-21 -1 -9 21 -25 23 -25 2z"/>
<path d="M4439 1882 c6 -11 11 -30 11 -41 0 -21 3 -21 335 -21 l335 0 0 35 0
35 -322 0 c-178 0 -334 3 -347 7 -21 5 -22 4 -12 -15z"/>
<path d="M4380 1772 c0 -4 22 -29 48 -55 l48 -47 322 0 c208 0 322 4 322 10 0
6 -115 10 -324 10 l-323 0 -42 45 c-41 45 -51 52 -51 37z"/>
<path d="M4490 1568 l145 -148 245 2 245 3 -245 2 -245 3 -145 143 -145 142
145 -147z"/>
<path d="M4330 1657 c0 -2 15 -16 33 -33 l32 -29 -29 33 c-28 30 -36 37 -36
29z"/>
<path d="M4545 1443 l90 -93 245 2 245 3 -245 2 -245 3 -90 88 -90 87 90 -92z"/>
<path d="M4575 1383 l59 -63 246 2 245 3 -245 2 -245 3 -60 58 -60 57 60 -62z"/>
<path d="M4578 1273 c5 -21 7 -23 10 -9 2 10 0 22 -6 28 -6 6 -7 0 -4 -19z"/>
</g>
</svg>
